PathFileType	4	(X/Y/Z)	 s09c0201.trc
DataRate	CameraRate	NumFrames	NumMarkers	Units	OrigDataRate	OrigDataStartFrame	OrigNumFrames
200	200	4	50	mm	200	1501	2000
Frame#	Time	racr			lacr			c7			jug			rlel			rdr			llel			ldr			s2			lic			ric			lasi			rasi			rpsi			lpsi			rgt			lgt			rth1			rth2			rth3			rth4			rlfc			rmfc			rsh1			rsh2			rsh3			rsh4			rlmal			rmmal			rcal			rtoe			rmt5			lth1			lth2			lth4			lth3			llfc			lmfc			llmal			lmmal			lcal			lmt5			lsh1			lsh2			lsh3			lsh4			ltoe			SBIKE			LBIKE			RBIKE			
		X1	Y1	Z1	X2	Y2	Z2	X3	Y3	Z3	X4	Y4	Z4	X5	Y5	Z5	X6	Y6	Z6	X7	Y7	Z7	X8	Y8	Z8	X9	Y9	Z9	X10	Y10	Z10	X11	Y11	Z11	X12	Y12	Z12	X13	Y13	Z13	X14	Y14	Z14	X15	Y15	Z15	X16	Y16	Z16	X17	Y17	Z17	X18	Y18	Z18	X19	Y19	Z19	X20	Y20	Z20	X21	Y21	Z21	X22	Y22	Z22	X23	Y23	Z23	X24	Y24	Z24	X25	Y25	Z25	X26	Y26	Z26	X27	Y27	Z27	X28	Y28	Z28	X29	Y29	Z29	X30	Y30	Z30	X31	Y31	Z31	X32	Y32	Z32	X33	Y33	Z33	X34	Y34	Z34	X35	Y35	Z35	X36	Y36	Z36	X37	Y37	Z37	X38	Y38	Z38	X39	Y39	Z39	X40	Y40	Z40	X41	Y41	Z41	X42	Y42	Z42	X43	Y43	Z43	X44	Y44	Z44	X45	Y45	Z45	X46	Y46	Z46	X47	Y47	Z47	X48	Y48	Z48	X49	Y49	Z49	X50	Y50	Z50	
1501	7.5050	490.056373	1214.408389	-22.506184	562.538337	1178.165979	-357.492334	515.236173	1275.561000	-193.130913	479.512351	1146.994557	-195.312525	468.718309	999.864676	106.298788	666.234141	894.228656	12.927338	469.639651	1019.135321	-565.418589	663.057903	898.603323	-495.842159	21.250291	1130.918367	-268.649856	167.184482	1114.978177	-402.448370	141.111641	1143.458672	-104.414544	202.922516	1063.107676	-369.872728	189.291586	1090.597283	-116.703383	42.796372	1165.405282	-210.201505	54.175452	1164.522039	-319.476491	129.348608	1004.348876	-60.811940	141.471062	981.151223	-434.291940	245.695743	920.927828	-59.399775	328.390179	889.389317	-62.470488	378.990715	818.084728	-67.397163	347.900879	913.492285	-82.407093	447.345081	737.288314	-95.796784	442.070013	714.582606	-192.261854	406.128122	639.687091	-62.966477	410.531804	550.766479	-76.217204	370.148807	473.250145	-75.957777	436.084386	548.627390	-105.963463	351.441770	370.785949	-76.009248	345.138006	383.671251	-153.458935	274.204566	320.461722	-111.898509	534.740337	361.644413	-132.546307	462.193979	329.025982	-61.975957	243.063079	885.346819	-420.293528	315.084200	844.096171	-402.490891	338.610551	868.622097	-384.543432	360.241407	766.394427	-393.860411	394.078216	676.001666	-370.952175	386.864337	660.188054	-272.743539	111.288717	447.327725	-402.984830	128.711641	440.512282	-330.912478	38.022806	460.019026	-366.682910	132.976013	315.726227	-428.119986	321.621884	611.012341	-400.577437	270.372106	541.640692	-394.137307	189.159477	505.101633	-401.629666	283.694818	524.580852	-360.129964	210.267492	265.173840	-358.169412	-64.989576	853.327602	-239.350412	20.733001	84.701414	-442.048729	21.142681	84.040267	-43.823040	
1502	7.5100	491.907745	1214.534920	-24.281293	561.755684	1177.942634	-358.639065	515.389975	1275.050107	-193.139986	478.927362	1146.691441	-194.706090	469.591398	1000.594259	106.391667	666.644886	894.084383	13.022808	468.206659	1017.107524	-565.147800	663.064168	898.325923	-496.408470	21.111947	1129.416863	-267.154912	166.454101	1115.064719	-400.859413	140.694174	1141.532025	-102.071650	202.579624	1063.369715	-368.407417	189.268873	1089.040705	-115.068730	42.524615	1163.858690	-207.980737	53.680221	1163.660671	-317.778095	128.402003	999.934491	-59.736556	142.655219	981.708838	-433.712604	243.357421	914.815392	-58.783132	326.021575	881.716722	-61.572394	375.173306	809.757871	-66.556936	345.866182	905.849460	-80.702075	441.516920	728.255882	-95.165824	436.329412	705.912303	-191.339521	401.581487	630.266877	-62.230768	407.319795	541.529813	-75.664859	368.189891	463.295368	-75.559786	432.935004	539.763730	-105.407417	350.748598	360.261585	-75.662064	344.494747	373.162026	-153.072212	273.887894	309.953042	-111.737080	534.567106	350.617377	-132.561674	461.958137	317.994478	-62.008656	245.040135	887.779902	-419.644030	317.795488	847.881221	-402.146083	341.034718	872.802899	-383.939615	364.685831	771.071295	-393.012858	399.624523	681.738298	-370.242233	393.322102	665.991702	-271.883410	113.079216	457.945391	-402.670396	130.571680	450.559748	-330.957334	39.731550	471.416630	-366.542317	133.567975	326.326604	-428.193048	326.262931	617.804609	-400.048191	273.702610	549.268554	-393.571114	191.903244	514.267125	-401.197245	286.785976	532.020184	-359.673684	210.427008	275.345162	-358.202450	-64.969453	853.296314	-239.228335	20.734434	84.801179	-441.972331	21.141238	84.029402	-43.799911	
1503	7.5150	493.842359	1214.982791	-25.326261	561.013563	1177.721580	-359.851298	515.735056	1274.575479	-193.451267	478.467085	1146.448884	-194.430873	470.514005	1001.405216	106.329397	667.172384	893.987019	13.138384	466.791830	1015.092997	-565.017405	663.050211	898.236978	-497.010532	20.868867	1127.991435	-265.368649	165.570181	1115.253627	-399.178196	140.410958	1139.589233	-99.690733	202.275196	1063.680084	-366.936659	189.359795	1087.550013	-113.317671	42.276794	1162.475348	-205.526956	53.028928	1162.656074	-315.926905	127.430355	995.700169	-58.412747	143.647349	982.363178	-433.090589	241.422417	909.094957	-57.507681	323.197221	874.712419	-61.340208	370.921016	801.421036	-65.977596	344.112104	897.926763	-79.522318	435.463294	719.080892	-94.717538	430.188904	696.972166	-190.710457	396.891589	620.762837	-61.786927	403.881321	532.027784	-75.526765	365.803800	453.379301	-75.410172	429.331125	530.901934	-105.408061	349.474374	349.821708	-75.364456	343.083729	362.670641	-152.653251	272.930185	299.630173	-111.623220	533.759360	339.506848	-132.512172	461.073320	307.015334	-61.975749	246.858519	890.336554	-418.738687	320.766082	852.160751	-400.834791	343.192574	877.522005	-383.297228	368.998548	776.270658	-392.105654	405.211127	687.709138	-369.692386	397.375872	671.306042	-271.086807	115.334951	468.449080	-402.367900	132.658476	460.897259	-330.656936	41.730201	482.629509	-366.467813	134.748326	336.981520	-428.140988	331.019404	624.820749	-399.486522	277.418407	557.135428	-393.065774	195.094975	523.676449	-401.073175	290.029076	539.546093	-358.894977	211.360029	285.512922	-358.271951	-65.011509	853.260641	-238.982137	20.743952	84.817165	-441.950087	21.137124	84.008614	-43.823637	
1504	7.5200	495.796945	1215.404465	-26.538945	560.173370	1177.582033	-361.286946	516.186885	1274.221717	-194.278770	478.214976	1146.302264	-194.624310	471.555364	1001.977763	106.141988	667.814130	893.949594	13.281764	465.419641	1013.062432	-564.938928	663.143837	898.094814	-497.443619	20.972210	1126.412683	-263.371907	164.526831	1115.561647	-397.470523	140.233245	1137.623756	-97.330514	201.859435	1064.005137	-365.384293	189.480497	1086.119834	-111.519952	42.400493	1161.592952	-202.893787	52.427315	1162.200317	-313.654161	126.501326	991.683818	-56.816949	144.550643	983.098922	-432.296665	239.515526	903.614676	-55.805349	320.019636	867.154188	-59.696196	366.321896	792.770881	-65.672217	342.099570	889.505253	-78.275910	429.061066	709.958630	-94.730713	423.668697	687.914706	-190.316803	392.142116	611.203285	-61.645333	400.078184	522.620163	-75.594340	363.003960	443.491626	-75.430496	425.338454	521.795739	-105.803019	347.616157	339.514520	-75.179819	341.389418	352.421429	-152.493427	271.328886	289.607790	-111.697164	532.569378	328.564083	-132.295316	459.634299	296.089229	-62.030171	248.410945	893.138540	-417.746909	323.081029	857.073698	-400.680455	345.238468	882.492829	-382.860385	373.099293	781.717959	-391.197806	410.753600	693.924348	-369.135294	405.012816	678.547886	-269.891645	118.106796	479.005790	-402.030733	135.131893	471.374232	-330.722908	44.123609	493.793578	-366.468987	136.553677	347.649441	-428.102520	336.053019	631.852511	-398.905073	281.446844	565.451268	-392.822043	198.533138	532.927297	-400.579301	293.797181	547.528095	-358.552430	212.898162	295.690762	-358.122055	-64.859607	853.477165	-239.360388	20.730207	84.703600	-442.046841	21.144206	84.003373	-43.798957	
